<svg id="visual" viewBox="0 0 1920 1080" width="1920" height="1080" xmlns="http://www.w3.org/2000/svg" xmlns:xlink="http://www.w3.org/1999/xlink" version="1.1"><rect x="0" y="0" width="1920" height="1080" fill="#040d12"></rect><path d="M0 673L45.7 682.8C91.3 692.7 182.7 712.3 274.2 720.3C365.7 728.3 457.3 724.7 548.8 714.5C640.3 704.3 731.7 687.7 823 693.5C914.3 699.3 1005.7 727.7 1097 741.5C1188.3 755.3 1279.7 754.7 1371.2 738.5C1462.7 722.3 1554.3 690.7 1645.8 681.3C1737.3 672 1828.7 685 1874.3 691.5L1920 698L1920 1081L1874.3 1081C1828.7 1081 1737.3 1081 1645.8 1081C1554.3 1081 1462.7 1081 1371.2 1081C1279.7 1081 1188.3 1081 1097 1081C1005.7 1081 914.3 1081 823 1081C731.7 1081 640.3 1081 548.8 1081C457.3 1081 365.7 1081 274.2 1081C182.7 1081 91.3 1081 45.7 1081L0 1081Z" fill="#021722"></path><path d="M0 769L45.7 757.5C91.3 746 182.7 723 274.2 731.8C365.7 740.7 457.3 781.3 548.8 779.2C640.3 777 731.7 732 823 723.8C914.3 715.7 1005.7 744.3 1097 753.2C1188.3 762 1279.7 751 1371.2 749.7C1462.7 748.3 1554.3 756.7 1645.8 753C1737.3 749.3 1828.7 733.7 1874.3 725.8L1920 718L1920 1081L1874.3 1081C1828.7 1081 1737.3 1081 1645.8 1081C1554.3 1081 1462.7 1081 1371.2 1081C1279.7 1081 1188.3 1081 1097 1081C1005.7 1081 914.3 1081 823 1081C731.7 1081 640.3 1081 548.8 1081C457.3 1081 365.7 1081 274.2 1081C182.7 1081 91.3 1081 45.7 1081L0 1081Z" fill="#00353d"></path><path d="M0 767L45.7 777.7C91.3 788.3 182.7 809.7 274.2 822C365.7 834.3 457.3 837.7 548.8 833.7C640.3 829.7 731.7 818.3 823 815C914.3 811.7 1005.7 816.3 1097 810C1188.3 803.7 1279.7 786.3 1371.2 786.2C1462.7 786 1554.3 803 1645.8 815.3C1737.3 827.7 1828.7 835.3 1874.3 839.2L1920 843L1920 1081L1874.3 1081C1828.7 1081 1737.3 1081 1645.8 1081C1554.3 1081 1462.7 1081 1371.2 1081C1279.7 1081 1188.3 1081 1097 1081C1005.7 1081 914.3 1081 823 1081C731.7 1081 640.3 1081 548.8 1081C457.3 1081 365.7 1081 274.2 1081C182.7 1081 91.3 1081 45.7 1081L0 1081Z" fill="#18564c"></path><path d="M0 927L45.7 923.3C91.3 919.7 182.7 912.3 274.2 906.5C365.7 900.7 457.3 896.3 548.8 888.7C640.3 881 731.7 870 823 869C914.3 868 1005.7 877 1097 887.8C1188.3 898.7 1279.7 911.3 1371.2 916.2C1462.7 921 1554.3 918 1645.8 917C1737.3 916 1828.7 917 1874.3 917.5L1920 918L1920 1081L1874.3 1081C1828.7 1081 1737.3 1081 1645.8 1081C1554.3 1081 1462.7 1081 1371.2 1081C1279.7 1081 1188.3 1081 1097 1081C1005.7 1081 914.3 1081 823 1081C731.7 1081 640.3 1081 548.8 1081C457.3 1081 365.7 1081 274.2 1081C182.7 1081 91.3 1081 45.7 1081L0 1081Z" fill="#18564c"></path><path d="M0 963L45.7 953.8C91.3 944.7 182.7 926.3 274.2 925C365.7 923.7 457.3 939.3 548.8 937C640.3 934.7 731.7 914.3 823 919.3C914.3 924.3 1005.7 954.7 1097 968.8C1188.3 983 1279.7 981 1371.2 967.5C1462.7 954 1554.3 929 1645.8 923.7C1737.3 918.3 1828.7 932.7 1874.3 939.8L1920 947L1920 1081L1874.3 1081C1828.7 1081 1737.3 1081 1645.8 1081C1554.3 1081 1462.7 1081 1371.2 1081C1279.7 1081 1188.3 1081 1097 1081C1005.7 1081 914.3 1081 823 1081C731.7 1081 640.3 1081 548.8 1081C457.3 1081 365.7 1081 274.2 1081C182.7 1081 91.3 1081 45.7 1081L0 1081Z" fill="#00353d"></path><path d="M0 981L45.7 987.5C91.3 994 182.7 1007 274.2 1006.3C365.7 1005.7 457.3 991.3 548.8 987C640.3 982.7 731.7 988.3 823 993.5C914.3 998.7 1005.7 1003.3 1097 999.7C1188.3 996 1279.7 984 1371.2 987.8C1462.7 991.7 1554.3 1011.3 1645.8 1016.8C1737.3 1022.3 1828.7 1013.7 1874.3 1009.3L1920 1005L1920 1081L1874.3 1081C1828.7 1081 1737.3 1081 1645.8 1081C1554.3 1081 1462.7 1081 1371.2 1081C1279.7 1081 1188.3 1081 1097 1081C1005.7 1081 914.3 1081 823 1081C731.7 1081 640.3 1081 548.8 1081C457.3 1081 365.7 1081 274.2 1081C182.7 1081 91.3 1081 45.7 1081L0 1081Z" fill="#021722"></path></svg>