<svg id="visual" viewBox="0 0 900 600" width="900" height="600" xmlns="http://www.w3.org/2000/svg" xmlns:xlink="http://www.w3.org/1999/xlink" version="1.1"><rect x="0" y="0" width="900" height="600" fill="#040d12"></rect><path d="M487 600L612 540L505 480L500 420L459 360L574 300L608 240L592 180L497 120L577 60L474 0L900 0L900 60L900 120L900 180L900 240L900 300L900 360L900 420L900 480L900 540L900 600Z" fill="#1b6d5f"></path><path d="M625 600L538 540L611 480L574 420L516 360L681 300L605 240L524 180L664 120L519 60L648 0L900 0L900 60L900 120L900 180L900 240L900 300L900 360L900 420L900 480L900 540L900 600Z" fill="#0f5d56"></path><path d="M707 600L659 540L690 480L658 420L700 360L669 300L620 240L657 180L594 120L632 60L689 0L900 0L900 60L900 120L900 180L900 240L900 300L900 360L900 420L900 480L900 540L900 600Z" fill="#084d4c"></path><path d="M652 600L723 540L662 480L730 420L707 360L689 300L668 240L711 180L729 120L635 60L656 0L900 0L900 60L900 120L900 180L900 240L900 300L900 360L900 420L900 480L900 540L900 600Z" fill="#073e40"></path><path d="M750 600L748 540L715 480L715 420L700 360L724 300L777 240L752 180L777 120L762 60L693 0L900 0L900 60L900 120L900 180L900 240L900 300L900 360L900 420L900 480L900 540L900 600Z" fill="#082f33"></path><path d="M806 600L799 540L821 480L819 420L803 360L798 300L763 240L795 180L821 120L768 60L796 0L900 0L900 60L900 120L900 180L900 240L900 300L900 360L900 420L900 480L900 540L900 600Z" fill="#082125"></path><path d="M862 600L811 540L813 480L864 420L830 360L827 300L864 240L840 180L808 120L842 60L804 0L900 0L900 60L900 120L900 180L900 240L900 300L900 360L900 420L900 480L900 540L900 600Z" fill="#021317"></path></svg>