<svg id="visual" viewBox="0 0 1920 1080" width="1920" height="1080" xmlns="http://www.w3.org/2000/svg" xmlns:xlink="http://www.w3.org/1999/xlink" version="1.1"><rect x="0" y="0" width="1920" height="1080" fill="#104138"></rect><defs><linearGradient id="grad1_0" x1="43.8%" y1="0%" x2="100%" y2="100%"><stop offset="14.444444444444446%" stop-color="#010508" stop-opacity="1"></stop><stop offset="85.55555555555554%" stop-color="#010508" stop-opacity="1"></stop></linearGradient></defs><defs><linearGradient id="grad1_1" x1="43.8%" y1="0%" x2="100%" y2="100%"><stop offset="14.444444444444446%" stop-color="#010508" stop-opacity="1"></stop><stop offset="85.55555555555554%" stop-color="#0a2528" stop-opacity="1"></stop></linearGradient></defs><defs><linearGradient id="grad1_2" x1="43.8%" y1="0%" x2="100%" y2="100%"><stop offset="14.444444444444446%" stop-color="#104138" stop-opacity="1"></stop><stop offset="85.55555555555554%" stop-color="#0a2528" stop-opacity="1"></stop></linearGradient></defs><defs><linearGradient id="grad2_0" x1="0%" y1="0%" x2="56.3%" y2="100%"><stop offset="14.444444444444446%" stop-color="#010508" stop-opacity="1"></stop><stop offset="85.55555555555554%" stop-color="#010508" stop-opacity="1"></stop></linearGradient></defs><defs><linearGradient id="grad2_1" x1="0%" y1="0%" x2="56.3%" y2="100%"><stop offset="14.444444444444446%" stop-color="#0a2528" stop-opacity="1"></stop><stop offset="85.55555555555554%" stop-color="#010508" stop-opacity="1"></stop></linearGradient></defs><defs><linearGradient id="grad2_2" x1="0%" y1="0%" x2="56.3%" y2="100%"><stop offset="14.444444444444446%" stop-color="#0a2528" stop-opacity="1"></stop><stop offset="85.55555555555554%" stop-color="#104138" stop-opacity="1"></stop></linearGradient></defs><g transform="translate(1920, 0)"><path d="M0 918C-82.7 895.6 -165.5 873.3 -217.7 812.3C-269.9 751.4 -291.5 651.9 -364 630.5C-436.5 609 -559.8 665.7 -649.1 649.1C-738.5 632.5 -793.9 542.6 -778.6 449.5C-763.3 356.4 -677.2 260 -688.7 184.5C-700.2 109.1 -809.1 54.5 -918 0L0 0Z" fill="#093332"></path><path d="M0 612C-55.2 597.1 -110.3 582.2 -145.1 541.6C-179.9 500.9 -194.3 434.6 -242.7 420.3C-291 406 -373.2 443.8 -432.7 432.7C-492.3 421.7 -529.2 361.8 -519 299.7C-508.8 237.6 -451.5 173.3 -459.1 123C-466.8 72.7 -539.4 36.4 -612 0L0 0Z" fill="#0a171b"></path><path d="M0 306C-27.6 298.5 -55.2 291.1 -72.6 270.8C-90 250.5 -97.2 217.3 -121.3 210.2C-145.5 203 -186.6 221.9 -216.4 216.4C-246.2 210.8 -264.6 180.9 -259.5 149.8C-254.4 118.8 -225.7 86.7 -229.6 61.5C-233.4 36.4 -269.7 18.2 -306 0L0 0Z" fill="#010508"></path></g><g transform="translate(0, 1080)"><path d="M0 -918C62.5 -845.7 125 -773.4 204.5 -763.1C283.9 -752.8 380.4 -804.6 459 -795C537.6 -785.5 598.3 -714.6 637.8 -637.8C677.3 -561.1 695.5 -478.4 698 -403C700.6 -327.6 687.5 -259.3 721.5 -193.3C755.6 -127.4 836.8 -63.7 918 0L0 0Z" fill="#093332"></path><path d="M0 -612C41.7 -563.8 83.3 -515.6 136.3 -508.7C189.3 -501.9 253.6 -536.4 306 -530C358.4 -523.6 398.9 -476.4 425.2 -425.2C451.5 -374 463.6 -319 465.3 -268.7C467 -218.4 458.3 -172.9 481 -128.9C503.7 -84.9 557.9 -42.5 612 0L0 0Z" fill="#0a171b"></path><path d="M0 -306C20.8 -281.9 41.7 -257.8 68.2 -254.4C94.6 -250.9 126.8 -268.2 153 -265C179.2 -261.8 199.4 -238.2 212.6 -212.6C225.8 -187 231.8 -159.5 232.7 -134.3C233.5 -109.2 229.2 -86.4 240.5 -64.4C251.9 -42.5 278.9 -21.2 306 0L0 0Z" fill="#010508"></path></g></svg>